<?xml version="1.0" encoding="UTF-8"?>
<svg id="Layer_1" data-name="Layer 1" xmlns="http://www.w3.org/2000/svg" version="1.1" viewBox="0 0 973.1 136.4">
  <g>
    <path d="M70.9,74.2v8.3H22.8v-8.3h48.1ZM74.4,54.8v8.3H26.3v-8.3h48.1ZM47.2,41.9l-8.6,53.6h-9.4l8.6-53.6h9.4ZM67.1,41.9l-8.7,53.6h-9.3l8.6-53.6h9.4Z" fill="#001ef4" stroke-width="0"/>
    <path d="M125.1,74.2v8.3h-48.1v-8.3h48.1ZM128.6,54.8v8.3h-48.1v-8.3h48.1ZM101.4,41.9l-8.6,53.6h-9.4l8.6-53.6h9.4ZM121.2,41.9l-8.7,53.6h-9.3l8.6-53.6h9.4Z" fill="#001ef4" stroke-width="0"/>
  </g>
  <g>
    <path d="M366,9.6v115.2h-26.5v-52.9l.9-35.4h-.3l-28.5,88.3h-24.3l-28.5-88.3h-.3l.9,35.4v52.9h-26.7V9.6h42.8l18.2,58.7,6.5,24.4h.3l6.6-24.3,18-58.8h41Z" fill="#2e3e59" stroke-width="0"/>
    <path d="M437.6,9.6c18,0,31.9,5,41.5,15,9.6,10,14.4,24.2,14.4,42.6s-4.8,32.6-14.4,42.6c-9.6,10-23.4,15-41.5,15h-48.9V9.6h48.9ZM434.7,102.1c9.8,0,16.9-2.9,21.4-8.8,4.5-5.9,6.7-14.6,6.7-26.1s-2.2-20.2-6.7-26.1c-4.5-5.9-11.6-8.8-21.4-8.8h-15.9v69.8h15.9Z" fill="#2e3e59" stroke-width="0"/>
    <path d="M611.9,124.8h-30.9l-8-26h-39.5l-8.2,26h-30.2l40.5-115.2h36l40.3,115.2ZM539.1,78.3h28.3l-14.1-46.6-14.1,46.6Z" fill="#2e3e59" stroke-width="0"/>
    <path d="M678.4,9.6c13.7,0,24.4,3.2,32,9.7,7.6,6.5,11.4,15,11.4,25.7s-3.8,20.7-11.3,26.9c-7.6,6.2-18.2,9.3-31.9,9.3l-2.8,1.6h-22.9v42.1h-29.5V9.6h55ZM674.2,61.4c5.8,0,10.2-1.2,13.1-3.5,2.9-2.3,4.4-6,4.4-11.2s-1.5-8.7-4.4-11c-2.9-2.3-7.3-3.5-13.1-3.5h-21.3v29.2h21.3ZM691.8,67.7l36.8,57.1h-33.2l-29.5-50.5,25.8-6.6Z" fill="#2e3e59" stroke-width="0"/>
    <path d="M740.9,124.8V9.6h89.7v23.2h-59.7v23.4h47.5v21.8h-47.5v23.6h62v23.2h-92Z" fill="#2e3e59" stroke-width="0"/>
    <path d="M957.7,124.8h-30.9l-8-26h-39.5l-8.2,26h-30.2l40.5-115.2h36l40.3,115.2ZM884.9,78.3h28.3l-14.1-46.6-14.1,46.6Z" fill="#2e3e59" stroke-width="0"/>
  </g>
  <rect x="9.4" y="9.2" width="202" height="117.4" rx="16.2" ry="16.2" fill="none" stroke="#001ef4" stroke-miterlimit="10" stroke-width="8"/>
  <line x1="158.8" y1="95.3" x2="158.8" y2="42.3" fill="none" stroke="#001ef4" stroke-miterlimit="10" stroke-width="8"/>
  <polyline points="141.9 100.8 158.8 95.3 175.7 100.8" fill="none" stroke="#001ef4" stroke-miterlimit="10" stroke-width="8"/>
  <polyline points="175.7 38.9 158.8 44.4 141.9 38.9" fill="none" stroke="#001ef4" stroke-miterlimit="10" stroke-width="8"/>
</svg>